# Blender 4.2.0
# www.blender.org
mtllib table.mtl
o table
v -4.800694 -7.906730 -0.966284
v 4.800694 -7.906730 -0.966284
v -4.800694 -1.115837 -0.966284
v 4.800694 -1.115837 -0.966284
v -4.800694 -7.906730 0.233716
v 4.800694 -7.906730 0.233716
v -4.800694 -1.115837 0.233716
v 4.800694 -1.115837 0.233716
v -5.294441 -8.001737 0.233716
v 5.214511 -8.001737 0.233716
v -5.294441 -7.020830 0.233716
v 5.214511 -7.020830 0.233716
v -5.294441 -8.001737 0.642763
v 5.214511 -8.001737 0.642763
v -5.294441 -7.020830 0.642763
v 5.214511 -7.020830 0.642763
v -5.029845 -7.023332 0.233716
v -3.515625 -7.023332 0.233716
v -5.059713 -2.032245 0.233716
v -3.538839 -1.984979 0.233716
v -5.029845 -7.023332 0.734174
v -3.515625 -7.023332 0.734174
v -5.059713 -2.032245 0.734174
v -3.538839 -1.984979 0.734174
v -4.233080 -7.023332 0.233716
v -4.329898 -6.287833 0.233716
v -4.472187 -7.023332 0.233716
v -4.472187 -7.023332 0.734174
v -4.329898 -6.287833 0.734174
v -4.233080 -7.023332 0.734174
v -4.985805 -4.511283 0.233716
v -3.471584 -4.511283 0.233716
v -3.471584 -4.511283 0.734174
v -4.985805 -4.511283 0.734174
v -3.443354 -5.095157 0.233716
v 3.443354 -5.095157 0.233716
v -3.443354 -3.927410 0.233716
v 3.443354 -3.927410 0.233716
v -3.443354 -5.095157 0.531736
v 3.443354 -5.095157 0.531736
v -3.443354 -3.927410 0.531736
v 3.443354 -3.927410 0.531736
v -5.294441 -2.001737 0.233716
v 5.214511 -2.001737 0.233716
v -5.294441 -1.020830 0.233716
v 5.214511 -1.020830 0.233716
v -5.294441 -2.001737 0.642763
v 5.214511 -2.001737 0.642763
v -5.294441 -1.020830 0.642763
v 5.214511 -1.020830 0.642763
v 3.485319 -6.991709 0.233716
v 5.014681 -6.991709 0.233716
v 3.485319 -2.030858 0.233716
v 5.014681 -2.030858 0.233716
v 3.485319 -6.991709 0.589041
v 5.014681 -6.991709 0.589041
v 3.485319 -2.030858 0.589041
v 5.014681 -2.030858 0.589041
v -4.205558 -6.569704 0.848061
v -4.242993 -6.479330 0.848061
v -4.333367 -6.441895 0.848061
v -4.423742 -6.479330 0.848061
v -4.461176 -6.569704 0.848061
v -4.423742 -6.660078 0.848061
v -4.333367 -6.697513 0.848061
v -4.242993 -6.660078 0.848061
v -4.205558 -6.569704 0.912931
v -4.242993 -6.479330 0.912931
v -4.333367 -6.441895 0.912931
v -4.423742 -6.479330 0.912931
v -4.461176 -6.569704 0.912931
v -4.423742 -6.660078 0.912931
v -4.333367 -6.697513 0.912931
v -4.242993 -6.660078 0.912931
v -3.681630 -7.547339 0.609253
v -3.719064 -7.456965 0.609253
v -3.809438 -7.419531 0.609253
v -3.899813 -7.456965 0.609253
v -3.937247 -7.547339 0.609253
v -3.899813 -7.637714 0.609253
v -3.809438 -7.675148 0.609253
v -3.719064 -7.637714 0.609253
v -3.681630 -7.547339 0.674123
v -3.719064 -7.456965 0.674123
v -3.809438 -7.419531 0.674123
v -3.899813 -7.456965 0.674123
v -3.937247 -7.547339 0.674123
v -3.899813 -7.637714 0.674123
v -3.809438 -7.675148 0.674123
v -3.719064 -7.637714 0.674123
v -4.201079 -7.892141 -0.276705
v -4.238513 -7.892141 -0.186331
v -4.328888 -7.892141 -0.148896
v -4.419262 -7.892141 -0.186331
v -4.456697 -7.892141 -0.276705
v -4.419262 -7.892141 -0.367079
v -4.328888 -7.892141 -0.404514
v -4.238513 -7.892141 -0.367079
v -4.201079 -7.957011 -0.276705
v -4.238513 -7.957011 -0.186331
v -4.328888 -7.957011 -0.148896
v -4.419262 -7.957011 -0.186331
v -4.456697 -7.957011 -0.276705
v -4.419262 -7.957011 -0.367079
v -4.328888 -7.957011 -0.404514
v -4.238513 -7.957011 -0.367079
v -2.819091 -4.319848 0.705311
v -2.898225 -4.354730 0.676509
v -2.931003 -4.438942 0.664579
v -2.898225 -4.523155 0.676509
v -2.819091 -4.558037 0.705311
v -2.739957 -4.523155 0.734114
v -2.707179 -4.438942 0.746044
v -2.739957 -4.354730 0.734114
v -2.843714 -4.319848 0.772965
v -2.922848 -4.354730 0.744162
v -2.955627 -4.438942 0.732232
v -2.922848 -4.523155 0.744162
v -2.843714 -4.558037 0.772965
v -2.764581 -4.523155 0.801767
v -2.731802 -4.438942 0.813698
v -2.764581 -4.354730 0.801767
v -2.847487 -4.408724 0.694976
v -2.819091 -4.396207 0.705311
v -2.790695 -4.408724 0.715647
v -2.778933 -4.438942 0.719928
v -2.790695 -4.469161 0.715647
v -2.819091 -4.481678 0.705311
v -2.847487 -4.469161 0.694976
v -2.859249 -4.438942 0.690695
v -2.725827 -4.408724 0.360720
v -2.697431 -4.396207 0.371055
v -2.669035 -4.408724 0.381390
v -2.657273 -4.438942 0.385671
v -2.669035 -4.469161 0.381390
v -2.697431 -4.481678 0.371055
v -2.725827 -4.469161 0.360720
v -2.737589 -4.438942 0.356439
v -4.435772 -1.465407 0.649255
v -4.473207 -1.375033 0.649255
v -4.563581 -1.337599 0.649255
v -4.653955 -1.375033 0.649255
v -4.691390 -1.465407 0.649255
v -4.653955 -1.555782 0.649255
v -4.563581 -1.593216 0.649255
v -4.473207 -1.555782 0.649255
v -4.435772 -1.465407 0.714125
v -4.473207 -1.375033 0.714125
v -4.563581 -1.337599 0.714125
v -4.653955 -1.375033 0.714125
v -4.691390 -1.465407 0.714125
v -4.653955 -1.555782 0.714125
v -4.563581 -1.593216 0.714125
v -4.473207 -1.555782 0.714125
v 4.059475 -1.449825 0.813188
v 3.979239 -1.493059 0.811955
v 3.950634 -1.576514 0.834879
v 3.990417 -1.651304 0.868531
v 4.075283 -1.673616 0.893199
v 4.155518 -1.630382 0.894432
v 4.184123 -1.546927 0.871508
v 4.144341 -1.472138 0.837856
v 4.046069 -1.426853 0.880090
v 3.965833 -1.470087 0.878857
v 3.937228 -1.553542 0.901781
v 3.977010 -1.628331 0.935433
v 4.061876 -1.650644 0.960101
v 4.142112 -1.607410 0.961334
v 4.170717 -1.523955 0.938410
v 4.130934 -1.449166 0.904758
v 4.035751 -1.537083 0.838396
v 4.064542 -1.521569 0.838838
v 4.094995 -1.529575 0.847690
v 4.109271 -1.556412 0.859765
v 4.099006 -1.586359 0.867991
v 4.070215 -1.601873 0.867549
v 4.039762 -1.593866 0.858697
v 4.025487 -1.567029 0.846621
v 4.101988 -1.650581 0.507852
v 4.130780 -1.635067 0.508294
v 4.161232 -1.643074 0.517146
v 4.175508 -1.669911 0.529222
v 4.165243 -1.699857 0.537448
v 4.136452 -1.715371 0.537005
v 4.105999 -1.707365 0.528154
v 4.091724 -1.680528 0.516078
v 4.823775 -5.033214 0.604012
v 4.786340 -4.942839 0.604012
v 4.695966 -4.905405 0.604012
v 4.605592 -4.942839 0.604012
v 4.568157 -5.033214 0.604012
v 4.605592 -5.123588 0.604012
v 4.695966 -5.161022 0.604012
v 4.786340 -5.123588 0.604012
v 4.823775 -5.033214 0.668882
v 4.786340 -4.942839 0.668882
v 4.695966 -4.905405 0.668882
v 4.605592 -4.942839 0.668882
v 4.568157 -5.033214 0.668882
v 4.605592 -5.123588 0.668882
v 4.695966 -5.161022 0.668882
v 4.786340 -5.123588 0.668882
v 4.783169 -7.367119 0.838522
v 4.711759 -7.401869 0.883262
v 4.685220 -7.485761 0.907059
v 4.719099 -7.569653 0.895974
v 4.793549 -7.604402 0.856501
v 4.864959 -7.569653 0.811761
v 4.891498 -7.485761 0.787964
v 4.857619 -7.401869 0.799049
v 4.819030 -7.360845 0.900635
v 4.747620 -7.395594 0.945374
v 4.721081 -7.479486 0.969171
v 4.754959 -7.563378 0.958087
v 4.829410 -7.598127 0.918613
v 4.900819 -7.563378 0.873874
v 4.927358 -7.479486 0.850077
v 4.893480 -7.395594 0.861162
v 4.760872 -7.455657 0.860340
v 4.786497 -7.443188 0.844286
v 4.813212 -7.455657 0.830121
v 4.825368 -7.485761 0.826144
v 4.815845 -7.515864 0.834683
v 4.790221 -7.528333 0.850737
v 4.763505 -7.515864 0.864901
v 4.751349 -7.485761 0.868879
v 4.583694 -7.486659 0.553459
v 4.609319 -7.474190 0.537406
v 4.636034 -7.486659 0.523241
v 4.648191 -7.516763 0.519264
v 4.638668 -7.546866 0.527803
v 4.613044 -7.559335 0.543857
v 4.586329 -7.546866 0.558021
v 4.574172 -7.516763 0.561999
v 4.453601 -7.892141 -0.099130
v 4.416166 -7.892141 -0.008755
v 4.325792 -7.892141 0.028679
v 4.235418 -7.892141 -0.008755
v 4.197983 -7.892141 -0.099130
v 4.235418 -7.892141 -0.189504
v 4.325792 -7.892141 -0.226938
v 4.416166 -7.892141 -0.189504
v 4.453601 -7.957011 -0.099130
v 4.416166 -7.957011 -0.008755
v 4.325792 -7.957011 0.028679
v 4.235418 -7.957011 -0.008755
v 4.197983 -7.957011 -0.099130
v 4.235418 -7.957011 -0.189504
v 4.325792 -7.957011 -0.226938
v 4.416166 -7.957011 -0.189504
v 4.591001 -7.892141 -0.714744
v 4.553566 -7.892141 -0.624369
v 4.463192 -7.892141 -0.586935
v 4.372818 -7.892141 -0.624369
v 4.335383 -7.892141 -0.714744
v 4.372818 -7.892141 -0.805118
v 4.463192 -7.892141 -0.842552
v 4.553566 -7.892141 -0.805118
v 4.591001 -7.957011 -0.714744
v 4.553566 -7.957011 -0.624369
v 4.463192 -7.957011 -0.586935
v 4.372818 -7.957011 -0.624369
v 4.335383 -7.957011 -0.714744
v 4.372818 -7.957011 -0.805118
v 4.463192 -7.957011 -0.842552
v 4.553566 -7.957011 -0.805118
vn -0.0000 -0.0000 1.0000
vn -0.0000 -1.0000 -0.0000
vn 1.0000 -0.0000 -0.0000
vn -0.0000 1.0000 -0.0000
vn -1.0000 -0.0000 -0.0000
vn 0.9818 -0.1899 -0.0000
vn 1.0000 0.0045 -0.0000
vn 0.9998 -0.0175 -0.0000
vn -0.0311 0.9995 -0.0000
vn -1.0000 -0.0061 -0.0000
vn -1.0000 -0.0062 -0.0000
vn -0.9996 -0.0298 -0.0000
vn -0.9914 -0.1305 -0.0000
vn 0.9996 0.0266 -0.0000
vn 1.0000 0.0046 -0.0000
vn -0.9998 0.0175 -0.0000
vn 0.7071 0.7071 -0.0000
vn -0.7071 0.7071 -0.0000
vn -0.7071 -0.7071 -0.0000
vn 0.7071 -0.7071 -0.0000
vn 0.7071 -0.0000 0.7071
vn -0.7071 -0.0000 0.7071
vn -0.7071 -0.0000 -0.7071
vn -0.0000 -0.0000 -1.0000
vn 0.7071 -0.0000 -0.7071
vn -0.6645 0.7071 -0.2418
vn -0.9397 -0.0000 -0.3420
vn -0.6645 -0.7071 -0.2418
vn 0.6645 -0.7071 0.2418
vn 0.9397 -0.0000 0.3420
vn 0.6645 0.7071 0.2418
vn -0.3420 -0.0000 0.9397
vn 0.3420 -0.0000 -0.9397
vn -0.0664 0.9396 -0.3359
vn -0.7401 0.5765 -0.3463
vn -0.9803 -0.1242 -0.1538
vn -0.6462 -0.7522 0.1288
vn 0.0664 -0.9396 0.3359
vn 0.7401 -0.5765 0.3463
vn 0.9803 0.1242 0.1538
vn 0.6462 0.7522 -0.1288
vn -0.1862 0.3191 0.9293
vn 0.1862 -0.3191 -0.9293
vn -0.0436 0.9962 -0.0755
vn -0.6432 0.7044 0.3002
vn -0.8660 -0.0000 0.5000
vn -0.5816 -0.7044 0.4069
vn 0.0436 -0.9962 0.0755
vn 0.6432 -0.7044 -0.3002
vn 0.8660 -0.0000 -0.5000
vn 0.5816 0.7044 -0.4069
vn 0.4981 0.0872 0.8627
vn -0.4981 -0.0872 -0.8627
vn -0.4981 -0.0871 -0.8627
vt 0.612818 0.510194
vt 0.001000 0.510194
vt 0.001000 0.077466
vt 0.612818 0.077466
vt 0.612818 0.586660
vt 0.001000 0.586660
vt 0.550174 0.833517
vt 0.982902 0.833517
vt 0.982902 0.909984
vt 0.550174 0.909984
vt 0.001000 0.001000
vt 0.612818 0.001000
vt 0.982902 0.989046
vt 0.550174 0.989046
vt 0.550174 0.912580
vt 0.982902 0.912580
vt 0.027066 0.615322
vt 0.696715 0.615322
vt 0.696715 0.677828
vt 0.027066 0.677828
vt 0.027066 0.589257
vt 0.696713 0.589257
vt 0.722782 0.615322
vt 0.722782 0.677828
vt 0.696713 0.703894
vt 0.027066 0.703894
vt 0.001000 0.677828
vt 0.001000 0.615322
vt 0.920036 0.077012
vt 0.806835 0.129150
vt 0.806835 0.032429
vt 0.620083 0.316223
vt 0.667819 0.316223
vt 0.667819 0.348113
vt 0.620083 0.348113
vt 0.806835 0.161491
vt 0.966923 0.129150
vt 0.966923 0.161491
vt 0.615415 0.129150
vt 0.615415 0.032429
vt 0.647341 0.032429
vt 0.647341 0.129150
vt 0.806835 0.001000
vt 0.647341 0.001000
vt 0.998625 0.129150
vt 0.966923 0.083267
vt 0.998737 0.083267
vt 0.715090 0.316223
vt 0.715090 0.348113
vt 0.998880 0.068042
vt 0.966923 0.068042
vt 0.966923 0.032429
vt 0.999000 0.032429
vt 0.647341 0.161491
vt 0.966923 0.001000
vt 0.439833 0.917124
vt 0.001000 0.917124
vt 0.001000 0.842713
vt 0.439833 0.842713
vt 0.439833 0.936115
vt 0.001000 0.936115
vt 0.001000 0.823722
vt 0.439833 0.823722
vt 0.027066 0.732555
vt 0.696715 0.732555
vt 0.696715 0.795060
vt 0.027066 0.795060
vt 0.027066 0.706490
vt 0.696714 0.706490
vt 0.722783 0.732555
vt 0.722783 0.795060
vt 0.696714 0.821126
vt 0.027066 0.821126
vt 0.001000 0.795060
vt 0.001000 0.732555
vt 0.931530 0.186730
vt 0.931530 0.284183
vt 0.615415 0.284183
vt 0.615415 0.186730
vt 0.931530 0.306825
vt 0.615415 0.306825
vt 0.615415 0.164088
vt 0.931530 0.164088
vt 0.877707 0.495515
vt 0.867412 0.520370
vt 0.859510 0.512468
vt 0.866532 0.495515
vt 0.842558 0.530665
vt 0.842558 0.519490
vt 0.817703 0.520370
vt 0.825605 0.512468
vt 0.807408 0.495515
vt 0.818583 0.495515
vt 0.817703 0.470661
vt 0.825605 0.478563
vt 0.842558 0.460366
vt 0.842558 0.471541
vt 0.867412 0.470661
vt 0.859510 0.478563
vt 0.837830 0.470056
vt 0.855344 0.474089
vt 0.850426 0.480991
vt 0.839233 0.478413
vt 0.864875 0.489325
vt 0.856518 0.490728
vt 0.860842 0.506839
vt 0.853940 0.501921
vt 0.845606 0.516370
vt 0.844203 0.508013
vt 0.828093 0.512337
vt 0.833010 0.505435
vt 0.818561 0.497101
vt 0.826918 0.495698
vt 0.822594 0.479588
vt 0.829496 0.484505
vt 0.854849 0.502129
vt 0.844146 0.508829
vt 0.842386 0.498363
vt 0.846204 0.495973
vt 0.831841 0.505998
vt 0.837997 0.497353
vt 0.825141 0.495295
vt 0.835607 0.493535
vt 0.827972 0.482990
vt 0.836617 0.489146
vt 0.838675 0.476290
vt 0.840435 0.486756
vt 0.850980 0.479121
vt 0.844824 0.487766
vt 0.857680 0.489824
vt 0.847214 0.491584
vt 0.833979 0.520588
vt 0.829605 0.520588
vt 0.829605 0.471135
vt 0.833979 0.471135
vt 0.825174 0.520588
vt 0.825174 0.471135
vt 0.820668 0.520588
vt 0.820668 0.471135
vt 0.855979 0.520588
vt 0.851473 0.520588
vt 0.851473 0.471135
vt 0.855979 0.471135
vt 0.847043 0.520588
vt 0.847043 0.471135
vt 0.842669 0.520588
vt 0.842669 0.471135
vt 0.838324 0.520588
vt 0.838324 0.471135
s 1
usemtl 10_-_Default
f 5/1/1 6/2/1 8/3/1
f 8/3/1 7/4/1 5/1/1
f 1/5/2 2/6/2 6/2/2
f 6/2/2 5/1/2 1/5/2
f 2/7/3 4/8/3 8/9/3
f 8/9/3 6/10/3 2/7/3
f 4/11/4 3/12/4 7/4/4
f 7/4/4 8/3/4 4/11/4
f 3/13/5 1/14/5 5/15/5
f 5/15/5 7/16/5 3/13/5
f 13/17/1 14/18/1 16/19/1
f 16/19/1 15/20/1 13/17/1
f 9/21/2 10/22/2 14/18/2
f 14/18/2 13/17/2 9/21/2
f 10/23/3 12/24/3 16/19/3
f 16/19/3 14/18/3 10/23/3
f 12/25/4 11/26/4 15/20/4
f 15/20/4 16/19/4 12/25/4
f 11/27/5 9/28/5 13/17/5
f 13/17/5 15/20/5 11/27/5
f 29/29/1 33/30/1 34/31/1
f 27/32/6 26/33/6 29/34/6
f 29/34/6 28/35/6 27/32/6
f 32/36/7 33/30/7 22/37/8
f 22/37/8 18/38/8 32/36/7
f 20/39/9 19/40/9 23/41/9
f 23/41/9 24/42/9 20/39/9
f 31/43/10 34/31/11 23/41/12
f 23/41/12 19/44/12 31/43/10
f 18/45/2 22/37/2 30/46/2
f 30/46/2 25/47/2 18/45/2
f 25/48/13 30/49/13 29/34/13
f 29/34/13 26/33/13 25/48/13
f 27/50/2 28/51/2 21/52/2
f 21/52/2 17/53/2 27/50/2
f 24/42/1 23/41/1 34/31/1
f 34/31/1 33/30/1 24/42/1
f 20/54/14 24/42/14 33/30/15
f 33/30/7 32/36/7 20/54/14
f 17/55/16 21/52/16 34/31/11
f 34/31/11 31/43/10 17/55/16
f 29/29/1 34/31/1 21/52/1
f 21/52/1 28/51/1 29/29/1
f 29/29/1 30/46/1 22/37/1
f 22/37/1 33/30/1 29/29/1
f 39/56/1 40/57/1 42/58/1
f 42/58/1 41/59/1 39/56/1
f 35/60/2 36/61/2 40/57/2
f 40/57/2 39/56/2 35/60/2
f 38/62/4 37/63/4 41/59/4
f 41/59/4 42/58/4 38/62/4
f 47/64/1 48/65/1 50/66/1
f 50/66/1 49/67/1 47/64/1
f 43/68/2 44/69/2 48/65/2
f 48/65/2 47/64/2 43/68/2
f 44/70/3 46/71/3 50/66/3
f 50/66/3 48/65/3 44/70/3
f 46/72/4 45/73/4 49/67/4
f 49/67/4 50/66/4 46/72/4
f 45/74/5 43/75/5 47/64/5
f 47/64/5 49/67/5 45/74/5
f 55/76/1 56/77/1 58/78/1
f 58/78/1 57/79/1 55/76/1
f 52/80/3 54/81/3 58/78/3
f 58/78/3 56/77/3 52/80/3
f 53/82/5 51/83/5 55/76/5
f 55/76/5 57/79/5 53/82/5
f 59/84/3 60/85/17 68/86/17
f 68/86/17 67/87/3 59/84/3
f 60/85/17 61/88/4 69/89/4
f 69/89/4 68/86/17 60/85/17
f 61/88/4 62/90/18 70/91/18
f 70/91/18 69/89/4 61/88/4
f 62/90/18 63/92/5 71/93/5
f 71/93/5 70/91/18 62/90/18
f 63/92/5 64/94/19 72/95/19
f 72/95/19 71/93/5 63/92/5
f 64/94/19 65/96/2 73/97/2
f 73/97/2 72/95/19 64/94/19
f 65/96/2 66/98/20 74/99/20
f 74/99/20 73/97/2 65/96/2
f 66/98/20 59/84/3 67/87/3
f 67/87/3 74/99/20 66/98/20
f 67/87/1 68/86/1 69/89/1
f 69/89/1 70/91/1 71/93/1
f 71/93/1 72/95/1 73/97/1
f 69/89/1 71/93/1 73/97/1
f 67/87/1 69/89/1 73/97/1
f 74/99/1 67/87/1 73/97/1
f 75/84/3 76/85/17 84/86/17
f 84/86/17 83/87/3 75/84/3
f 76/85/17 77/88/4 85/89/4
f 85/89/4 84/86/17 76/85/17
f 77/88/4 78/90/18 86/91/18
f 86/91/18 85/89/4 77/88/4
f 78/90/18 79/92/5 87/93/5
f 87/93/5 86/91/18 78/90/18
f 79/92/5 80/94/19 88/95/19
f 88/95/19 87/93/5 79/92/5
f 80/94/19 81/96/2 89/97/2
f 89/97/2 88/95/19 80/94/19
f 81/96/2 82/98/20 90/99/20
f 90/99/20 89/97/2 81/96/2
f 82/98/20 75/84/3 83/87/3
f 83/87/3 90/99/20 82/98/20
f 83/87/1 84/86/1 85/89/1
f 85/89/1 86/91/1 87/93/1
f 87/93/1 88/95/1 89/97/1
f 85/89/1 87/93/1 89/97/1
f 83/87/1 85/89/1 89/97/1
f 90/99/1 83/87/1 89/97/1
f 91/84/3 92/85/21 100/86/21
f 100/86/21 99/87/3 91/84/3
f 92/85/21 93/88/1 101/89/1
f 101/89/1 100/86/21 92/85/21
f 93/88/1 94/90/22 102/91/22
f 102/91/22 101/89/1 93/88/1
f 94/90/22 95/92/5 103/93/5
f 103/93/5 102/91/22 94/90/22
f 95/92/5 96/94/23 104/95/23
f 104/95/23 103/93/5 95/92/5
f 96/94/23 97/96/24 105/97/24
f 105/97/24 104/95/23 96/94/23
f 97/96/24 98/98/25 106/99/25
f 106/99/25 105/97/24 97/96/24
f 98/98/25 91/84/3 99/87/3
f 99/87/3 106/99/25 98/98/25
f 99/87/2 100/86/2 101/89/2
f 101/89/2 102/91/2 103/93/2
f 103/93/2 104/95/2 105/97/2
f 101/89/2 103/93/2 105/97/2
f 99/87/2 101/89/2 105/97/2
f 106/99/2 99/87/2 105/97/2
f 107/100/4 108/101/26 116/102/26
f 116/102/26 115/103/4 107/100/4
f 108/101/26 109/104/27 117/105/27
f 117/105/27 116/102/26 108/101/26
f 109/104/27 110/106/28 118/107/28
f 118/107/28 117/105/27 109/104/27
f 110/106/28 111/108/2 119/109/2
f 119/109/2 118/107/28 110/106/28
f 111/108/2 112/110/29 120/111/29
f 120/111/29 119/109/2 111/108/2
f 112/110/29 113/112/30 121/113/30
f 121/113/30 120/111/29 112/110/29
f 113/112/30 114/114/31 122/115/31
f 122/115/31 121/113/30 113/112/30
f 114/114/31 107/100/4 115/103/4
f 115/103/4 122/115/31 114/114/31
f 115/103/32 116/102/32 117/105/32
f 117/105/32 118/107/32 119/109/32
f 119/109/32 120/111/32 121/113/32
f 117/105/32 119/109/32 121/113/32
f 115/103/32 117/105/32 121/113/32
f 122/115/32 115/103/32 121/113/32
f 108/116/33 107/117/33 124/118/33
f 124/118/33 123/119/33 108/116/33
f 107/117/33 114/120/33 125/121/33
f 125/121/33 124/118/33 107/117/33
f 114/120/33 113/122/33 126/123/33
f 126/123/33 125/121/33 114/120/33
f 113/122/33 112/124/33 127/125/33
f 127/125/33 126/123/33 113/122/33
f 112/124/33 111/126/33 128/127/33
f 128/127/33 127/125/33 112/124/33
f 111/126/33 110/128/33 129/129/33
f 129/129/33 128/127/33 111/126/33
f 110/128/33 109/130/33 130/131/33
f 130/131/33 129/129/33 110/128/33
f 109/130/33 108/116/33 123/119/33
f 123/119/33 130/131/33 109/130/33
f 123/132/26 124/133/4 132/134/4
f 132/134/4 131/135/26 123/132/26
f 124/133/4 125/136/31 133/137/31
f 133/137/31 132/134/4 124/133/4
f 125/136/31 126/138/30 134/139/30
f 134/139/30 133/137/31 125/136/31
f 126/140/30 127/141/29 135/142/29
f 135/142/29 134/143/30 126/140/30
f 127/141/29 128/144/2 136/145/2
f 136/145/2 135/142/29 127/141/29
f 128/144/2 129/146/28 137/147/28
f 137/147/28 136/145/2 128/144/2
f 129/146/28 130/148/27 138/149/27
f 138/149/27 137/147/28 129/146/28
f 130/148/27 123/132/26 131/135/26
f 131/135/26 138/149/27 130/148/27
f 139/84/3 140/85/17 148/86/17
f 148/86/17 147/87/3 139/84/3
f 140/85/17 141/88/4 149/89/4
f 149/89/4 148/86/17 140/85/17
f 141/88/4 142/90/18 150/91/18
f 150/91/18 149/89/4 141/88/4
f 142/90/18 143/92/5 151/93/5
f 151/93/5 150/91/18 142/90/18
f 143/92/5 144/94/19 152/95/19
f 152/95/19 151/93/5 143/92/5
f 144/94/19 145/96/2 153/97/2
f 153/97/2 152/95/19 144/94/19
f 145/96/2 146/98/20 154/99/20
f 154/99/20 153/97/2 145/96/2
f 146/98/20 139/84/3 147/87/3
f 147/87/3 154/99/20 146/98/20
f 147/87/1 148/86/1 149/89/1
f 149/89/1 150/91/1 151/93/1
f 151/93/1 152/95/1 153/97/1
f 149/89/1 151/93/1 153/97/1
f 147/87/1 149/89/1 153/97/1
f 154/99/1 147/87/1 153/97/1
f 155/100/34 156/101/35 164/102/35
f 164/102/35 163/103/34 155/100/34
f 156/101/35 157/104/36 165/105/36
f 165/105/36 164/102/35 156/101/35
f 157/104/36 158/106/37 166/107/37
f 166/107/37 165/105/36 157/104/36
f 158/106/37 159/108/38 167/109/38
f 167/109/38 166/107/37 158/106/37
f 159/108/38 160/110/39 168/111/39
f 168/111/39 167/109/38 159/108/38
f 160/110/39 161/112/40 169/113/40
f 169/113/40 168/111/39 160/110/39
f 161/112/40 162/114/41 170/115/41
f 170/115/41 169/113/40 161/112/40
f 162/114/41 155/100/34 163/103/34
f 163/103/34 170/115/41 162/114/41
f 163/103/42 164/102/42 165/105/42
f 165/105/42 166/107/42 167/109/42
f 167/109/42 168/111/42 169/113/42
f 165/105/42 167/109/42 169/113/42
f 163/103/42 165/105/42 169/113/42
f 170/115/42 163/103/42 169/113/42
f 156/116/43 155/117/43 172/118/43
f 172/118/43 171/119/43 156/116/43
f 155/117/43 162/120/43 173/121/43
f 173/121/43 172/118/43 155/117/43
f 162/120/43 161/122/43 174/123/43
f 174/123/43 173/121/43 162/120/43
f 161/122/43 160/124/43 175/125/43
f 175/125/43 174/123/43 161/122/43
f 160/124/43 159/126/43 176/127/43
f 176/127/43 175/125/43 160/124/43
f 159/126/43 158/128/43 177/129/43
f 177/129/43 176/127/43 159/126/43
f 158/128/43 157/130/43 178/131/43
f 178/131/43 177/129/43 158/128/43
f 157/130/43 156/116/43 171/119/43
f 171/119/43 178/131/43 157/130/43
f 171/132/35 172/133/34 180/134/34
f 180/134/34 179/135/35 171/132/35
f 172/133/34 173/136/41 181/137/41
f 181/137/41 180/134/34 172/133/34
f 173/136/41 174/138/40 182/139/40
f 182/139/40 181/137/41 173/136/41
f 174/140/40 175/141/39 183/142/39
f 183/142/39 182/143/40 174/140/40
f 175/141/39 176/144/38 184/145/38
f 184/145/38 183/142/39 175/141/39
f 176/144/38 177/146/37 185/147/37
f 185/147/37 184/145/38 176/144/38
f 177/146/37 178/148/36 186/149/36
f 186/149/36 185/147/37 177/146/37
f 178/148/36 171/132/35 179/135/35
f 179/135/35 186/149/36 178/148/36
f 187/84/3 188/85/17 196/86/17
f 196/86/17 195/87/3 187/84/3
f 188/85/17 189/88/4 197/89/4
f 197/89/4 196/86/17 188/85/17
f 189/88/4 190/90/18 198/91/18
f 198/91/18 197/89/4 189/88/4
f 190/90/18 191/92/5 199/93/5
f 199/93/5 198/91/18 190/90/18
f 191/92/5 192/94/19 200/95/19
f 200/95/19 199/93/5 191/92/5
f 192/94/19 193/96/2 201/97/2
f 201/97/2 200/95/19 192/94/19
f 193/96/2 194/98/20 202/99/20
f 202/99/20 201/97/2 193/96/2
f 194/98/20 187/84/3 195/87/3
f 195/87/3 202/99/20 194/98/20
f 195/87/1 196/86/1 197/89/1
f 197/89/1 198/91/1 199/93/1
f 199/93/1 200/95/1 201/97/1
f 197/89/1 199/93/1 201/97/1
f 195/87/1 197/89/1 201/97/1
f 202/99/1 195/87/1 201/97/1
f 203/100/44 204/101/45 212/102/45
f 212/102/45 211/103/44 203/100/44
f 204/101/45 205/104/46 213/105/46
f 213/105/46 212/102/45 204/101/45
f 205/104/46 206/106/47 214/107/47
f 214/107/47 213/105/46 205/104/46
f 206/106/47 207/108/48 215/109/48
f 215/109/48 214/107/47 206/106/47
f 207/108/48 208/110/49 216/111/49
f 216/111/49 215/109/48 207/108/48
f 208/110/49 209/112/50 217/113/50
f 217/113/50 216/111/49 208/110/49
f 209/112/50 210/114/51 218/115/51
f 218/115/51 217/113/50 209/112/50
f 210/114/51 203/100/44 211/103/44
f 211/103/44 218/115/51 210/114/51
f 211/103/52 212/102/52 213/105/52
f 213/105/52 214/107/52 215/109/52
f 215/109/52 216/111/52 217/113/52
f 213/105/52 215/109/52 217/113/52
f 211/103/52 213/105/52 217/113/52
f 218/115/52 211/103/52 217/113/52
f 204/116/53 203/117/53 220/118/53
f 220/118/53 219/119/54 204/116/53
f 203/117/53 210/120/53 221/121/53
f 221/121/53 220/118/53 203/117/53
f 210/120/53 209/122/53 222/123/53
f 222/123/53 221/121/53 210/120/53
f 209/122/53 208/124/53 223/125/53
f 223/125/53 222/123/53 209/122/53
f 208/124/53 207/126/53 224/127/53
f 224/127/53 223/125/53 208/124/53
f 207/126/53 206/128/53 225/129/53
f 225/129/53 224/127/53 207/126/53
f 206/128/53 205/130/53 226/131/54
f 226/131/54 225/129/53 206/128/53
f 205/130/53 204/116/53 219/119/54
f 219/119/54 226/131/54 205/130/53
f 219/132/45 220/133/44 228/134/44
f 228/134/44 227/135/45 219/132/45
f 220/133/44 221/136/51 229/137/51
f 229/137/51 228/134/44 220/133/44
f 221/136/51 222/138/50 230/139/50
f 230/139/50 229/137/51 221/136/51
f 222/140/50 223/141/49 231/142/49
f 231/142/49 230/143/50 222/140/50
f 223/141/49 224/144/48 232/145/48
f 232/145/48 231/142/49 223/141/49
f 224/144/48 225/146/47 233/147/47
f 233/147/47 232/145/48 224/144/48
f 225/146/47 226/148/46 234/149/46
f 234/149/46 233/147/47 225/146/47
f 226/148/46 219/132/45 227/135/45
f 227/135/45 234/149/46 226/148/46
f 235/84/3 236/85/21 244/86/21
f 244/86/21 243/87/3 235/84/3
f 236/85/21 237/88/1 245/89/1
f 245/89/1 244/86/21 236/85/21
f 237/88/1 238/90/22 246/91/22
f 246/91/22 245/89/1 237/88/1
f 238/90/22 239/92/5 247/93/5
f 247/93/5 246/91/22 238/90/22
f 239/92/5 240/94/23 248/95/23
f 248/95/23 247/93/5 239/92/5
f 240/94/23 241/96/24 249/97/24
f 249/97/24 248/95/23 240/94/23
f 241/96/24 242/98/25 250/99/25
f 250/99/25 249/97/24 241/96/24
f 242/98/25 235/84/3 243/87/3
f 243/87/3 250/99/25 242/98/25
f 243/87/2 244/86/2 245/89/2
f 245/89/2 246/91/2 247/93/2
f 247/93/2 248/95/2 249/97/2
f 245/89/2 247/93/2 249/97/2
f 243/87/2 245/89/2 249/97/2
f 250/99/2 243/87/2 249/97/2
f 251/84/3 252/85/21 260/86/21
f 260/86/21 259/87/3 251/84/3
f 252/85/21 253/88/1 261/89/1
f 261/89/1 260/86/21 252/85/21
f 253/88/1 254/90/22 262/91/22
f 262/91/22 261/89/1 253/88/1
f 254/90/22 255/92/5 263/93/5
f 263/93/5 262/91/22 254/90/22
f 255/92/5 256/94/23 264/95/23
f 264/95/23 263/93/5 255/92/5
f 256/94/23 257/96/24 265/97/24
f 265/97/24 264/95/23 256/94/23
f 257/96/24 258/98/25 266/99/25
f 266/99/25 265/97/24 257/96/24
f 258/98/25 251/84/3 259/87/3
f 259/87/3 266/99/25 258/98/25
f 259/87/2 260/86/2 261/89/2
f 261/89/2 262/91/2 263/93/2
f 263/93/2 264/95/2 265/97/2
f 261/89/2 263/93/2 265/97/2
f 259/87/2 261/89/2 265/97/2
f 266/99/2 259/87/2 265/97/2
