# Blender 4.2.0
# www.blender.org
o Plane003
v -3.584174 -7.099023 0.446369
v 3.584174 -7.099023 0.446369
v -3.584174 -3.976046 0.446369
v 3.584174 -3.976046 0.446369
v -3.584174 -1.972292 0.446369
v 3.584174 -1.972292 0.446369
v -3.584174 -5.077456 0.446369
v 3.584174 -5.077456 0.446369
vn -0.0000 -0.0000 1.0000
vt 1.000000 0.000000
vt 0.000000 0.500000
vt 0.000000 0.000000
vt 1.000000 0.500000
vt 0.000000 1.000000
vt 1.000000 1.000000
s 1
f 2/1/1 7/2/1 1/3/1
f 4/4/1 5/5/1 3/2/1
f 2/1/1 8/4/1 7/2/1
f 4/4/1 6/6/1 5/5/1
