# Blender 4.2.0
# www.blender.org
o mesh_tablewater
v -3.600000 -2.600000 1.350000
v 3.600000 -2.600000 1.350000
v -3.600000 0.550000 1.350000
v 3.600000 0.550000 1.350000
v -3.600000 2.600000 1.350000
v 3.600000 2.600000 1.350000
v -3.600000 -0.550000 1.350000
v 3.600000 -0.550000 1.350000
vn -0.0000 -0.0000 1.0000
vt 1.000000 0.000000
vt 0.000000 0.500000
vt 0.000000 0.000000
vt 1.000000 0.500000
vt 0.000000 1.000000
vt 1.000000 1.000000
s 1
f 2/1/1 7/2/1 1/3/1
f 4/4/1 5/5/1 3/2/1
f 2/1/1 8/4/1 7/2/1
f 4/4/1 6/6/1 5/5/1
